PathFileType	4	(X/Y/Z)	39_2_96_p0_0-312.trc
DataRate	CameraRate	NumFrames	NumMarkers	Units	OrigDataRate	OrigDataStartFrame	OrigNumFrames
49.0	49.0	7	27	m	49.0	117	313
Frame#	Time	RHip			RKnee			RAnkle			RBigToe			RSmallToe			RHeel			LHip			LKnee			LAnkle			LBigToe			LSmallToe			LHeel			Neck			Head			Nose			RShoulder			RElbow			RWrist			RThumb			RIndex			RPinky			LShoulder			LElbow			LWrist			LThumb			LIndex			LPinky			
		X1	Y1	Z1	X2	Y2	Z2	X3	Y3	Z3	X4	Y4	Z4	X5	Y5	Z5	X6	Y6	Z6	X7	Y7	Z7	X8	Y8	Z8	X9	Y9	Z9	X10	Y10	Z10	X11	Y11	Z11	X12	Y12	Z12	X13	Y13	Z13	X14	Y14	Z14	X15	Y15	Z15	X16	Y16	Z16	X17	Y17	Z17	X18	Y18	Z18	X19	Y19	Z19	X20	Y20	Z20	X21	Y21	Z21	X22	Y22	Z22	X23	Y23	Z23	X24	Y24	Z24	X25	Y25	Z25	X26	Y26	Z26	X27	Y27	Z27	
117	2.3877551020408165	0.2852417371873053	0.6476236519260995	0.559474970921427	0.2342673208819919	0.6594856875593259	0.9442288076354527	0.2525228731187467	0.809789363249809	1.3103946397873019	0.21918084032711663	0.6930496065345931	1.364579660430703	0.2801145647750472	0.6830843716125252	1.354761149735942	0.22930012774882236	0.902009134388118	1.3794925820331427	0.06872535301399205	0.6668140712458897	0.5535459198260017	0.09468903427841166	0.6444439090176723	0.9409535557696671	0.03220154583901133	0.8155192413539805	1.3387895005742454	0.05416635073199581	0.6099557003195222	1.3244834269396006	0.008235799402584789	0.6640500008547934	1.3358393229416534	0.04022189671144781	0.8590672486770757	1.3780890552859106	0.19782171976216667	0.5237043890325567	-0.004324853913930197	0.207864798496643	0.45635036972725984	-0.25005005367579813	0.19231744894221053	0.4193964701581599	-0.11966486035378594	0.35325399035494703	0.5635542571493658	0.06410341670324755	0.5951071769685501	0.46587629418701393	0.1795462957869857	0.44753631707293073	0.3746896427254812	0.3176861020935165	0.3524383598384579	0.390720376515681	0.3725513220268401	0.3491998044162163	0.3500726484730449	0.4002769086357243	0.39744969884152503	0.3147152242549874	0.4227069957925125	0.0409805764330409	0.5564785939878133	0.044434593990524136	-0.18856538031939005	0.5015711666255004	0.11217829143821882	-0.11769468747609223	0.27501914457147325	0.1594616352481657	-0.06426945419785052	0.2723798129403826	0.23863607241893836	-0.07276464146747423	0.24168588197089982	0.25225954861428973	-0.10191888742693478	0.23362734479504416	0.26477965805899284
118	2.4081632653061225	0.2868235371068348	0.6369983933587974	0.5570110493470117	0.2329858637456697	0.6613912494184633	0.9447190418672983	0.24795489185954217	0.8072620072577813	1.3093039312550625	0.21915044717362217	0.6929439744082292	1.3642666698237305	0.2774943222160212	0.6703854343608114	1.3487657494419092	0.22517627498337264	0.900596746043888	1.37904010520276	0.06751729899302612	0.6680152322578261	0.5533913065943122	0.09233149296724695	0.6303375838451207	0.9361993290493188	0.03355519986742202	0.8145090772459285	1.3339996940026682	0.0587348764630236	0.6120225408872273	1.3251736335017945	0.009567013663230593	0.6630564127342478	1.3315855913229353	0.040160754295128394	0.8592710245150963	1.3780613744899362	0.20921711110492366	0.5235733818557119	-0.007724298142109956	0.2187529826548936	0.47170988423428506	-0.2536450111264512	0.19479851770693507	0.4294042922771756	-0.13033474888358643	0.3534082007761352	0.5640389448189153	0.06402354349781456	0.5952797311454838	0.46404952121301407	0.16910801788951824	0.45257604942493723	0.35760313934256055	0.28643700115379933	0.3583335578937484	0.37565683594484445	0.35050270372597303	0.3666231137041519	0.2852993128963816	0.37117423952935824	0.414548871521446	0.30327362684445786	0.4008678840954273	0.04098131117071167	0.5554389545212285	0.03372558889535397	-0.17377093030704927	0.4950515121723628	0.1007785743181108	-0.12032611833543361	0.28066274477106967	0.11892379040106035	-0.07551719469627427	0.23164612981592822	0.19209317058005518	-0.08020925350458871	0.22173714539550743	0.21045286811840877	-0.13360700229931124	0.2141651848015127	0.21615102087677585
119	2.4285714285714284	0.286396333646204	0.6366409617864269	0.5567748169540503	0.23415931812377963	0.6591322758911462	0.9441764460946828	0.24476922605811283	0.7920683859527622	1.3026937883658645	0.2237178157380533	0.6960409193012579	1.3662966643843457	0.27720664055368377	0.6694060683714615	1.3486645449840855	0.2252042474646787	0.8991852689088266	1.382600966720301	0.06202454972844905	0.6517195057357509	0.5460718064862982	0.09335454490575995	0.6295004079980613	0.93173210534694	0.03352939323771499	0.8142266146145135	1.3335905935992374	0.057409656421358576	0.6134341903507771	1.3295610792346113	0.001907148763756717	0.6788174688585913	1.3427864011208028	0.040314930715428306	0.8594439369794185	1.3779540531197294	0.2120778844249972	0.5355958574523864	-0.007385579357382528	0.23910322536894776	0.4989284765392988	-0.251142184780664	0.20119659063396036	0.44260414284667626	-0.1269460859766842	0.3538109523058193	0.5652873291982162	0.07128638128245976	0.5994146780604128	0.4647804681181773	0.16913576727376015	0.46029584395508955	0.34716041833361316	0.25988516421953667	0.374432905725528	0.312902318969129	0.3203129753486308	0.38212190308054017	0.2735650372584028	0.3451848259214109	0.4356127602710668	0.25212331520650133	0.36824140364371144	0.043394517888318995	0.540801553629535	0.03279996003841549	-0.19576995728167526	0.522526782159783	0.07478894089950318	-0.13186236783418132	0.2719985328864992	0.07611202002076209	-0.08119482109646593	0.23845090815345935	0.15575882395861035	-0.09338313295800676	0.2270300246406222	0.1654446624813097	-0.15271818430113798	0.20909957635924736	0.16983459772966614
120	2.4489795918367347	0.28964071795347235	0.6308735241789931	0.5517909092348368	0.23303019484811263	0.6594838144972757	0.9484106433051717	0.2447615800700355	0.7905467109508976	1.3063986989862648	0.22370747546932412	0.6960936452950669	1.3660851352319718	0.27685831954011886	0.6697311047113091	1.3487873983699836	0.2210627323421598	0.8972156010457362	1.386309982738956	0.06414620384684773	0.6644569332882603	0.5489631059579742	0.08802273601410351	0.6268678569653001	0.9348512990127243	0.03307837714592646	0.8117748230907866	1.327507419012741	0.05824053340667816	0.6115925531404395	1.3158904689286792	0.007658101018202311	0.6788771225511756	1.33875932287936	0.04009703764835858	0.8598749470194742	1.378078749203318	0.21899176471476964	0.5513344102957459	-0.0036201677855418387	0.24851139295041205	0.5242164186510678	-0.24896857628302665	0.20160137066684855	0.44292829273529516	-0.13026987069595816	0.3542620718184131	0.5669506146969222	0.07544486976282404	0.6037639907837922	0.476118614484365	0.16592992958891806	0.47733982255817636	0.3063247650197563	0.2371137044699909	0.3797605787743513	0.2752221319941298	0.29919248357529993	0.3829288865380942	0.25103691234194914	0.3215597818642618	0.4539919066572395	0.2263612362299804	0.3379704061293435	0.045812887756935254	0.553167883699143	0.03356607620470432	-0.20199815944117266	0.5613905040223496	0.04731028839008938	-0.13644303295030344	0.27375970320427057	0.028211995724620034	-0.0819577233158091	0.2225103301152346	0.09067169956672588	-0.10279618197387731	0.172027113816708	0.09751670954429632	-0.15491644722580503	0.20082009829191355	0.12581026172067844
121	2.4693877551020407	0.28297141439416323	0.6072930769434168	0.5550022080945903	0.23028833374324928	0.6460451732830766	0.9443983015188456	0.24334549294475313	0.7919612998973278	1.311625469326113	0.21655409718843474	0.6798333950055646	1.358672735437531	0.27656391277230474	0.6692868877724731	1.348834847960468	0.21960216297786583	0.8991696404030692	1.3915622905590557	0.059183027606181965	0.637313973746012	0.5513089001842532	0.08324293645987584	0.5997843087521184	0.9255745111745957	0.033495856680834685	0.8143855349442025	1.333442288640834	0.05713956116360347	0.6110020060593646	1.3241514975387783	0.006428139058514942	0.6799759529046183	1.3430974725390927	0.043984684850261656	0.8630992555689346	1.3796074476045779	0.22312145931784227	0.5539974552061293	-0.0033052080102980836	0.25561864559099673	0.5377905523858201	-0.24950909728118237	0.20189632874104924	0.4416974612825023	-0.13031063142868385	0.3662145535965377	0.5568186683239057	0.08217589220778745	0.6074387300945053	0.46314050924250594	0.16149960561625068	0.4933997548592661	0.29466006451540866	0.215368543172575	0.38904355672091256	0.243281617198584	0.2817125612010298	0.39456785606410466	0.20243700680828208	0.28969686083714613	0.45480028103331976	0.20753081198268458	0.3113956073659845	0.04163760526966683	0.5549283845529693	0.02973764782672048	-0.18433907245057474	0.5377701802629032	0.04630526886125113	-0.15020076118897052	0.3054527910855438	-0.00161570711659564	-0.07879176992226469	0.2154799528667276	0.05246050267625099	-0.10417504430286627	0.1441666195449028	0.022286656189170508	-0.1603627693521757	0.1801219493081937	0.05361886147751404
122	2.489795918367347	0.27405058432309476	0.621265673067247	0.5620099196494326	0.23011865335957682	0.6454264155309515	0.944197135757181	0.24100999174855423	0.8239398129431112	1.3256886648011037	0.22161644955666832	0.6631069967486798	1.3509134572725676	0.2716791967476677	0.665827193585004	1.3474811313777515	0.2209346751396253	0.9349926346501907	1.4068665091396266	0.045278637102595026	0.6250495171312148	0.5481644010074492	0.08329174155954976	0.599402226797833	0.925684812424997	0.033487128974171956	0.8144931032937286	1.3336411922497233	0.057147168759394504	0.6105945823260345	1.32388375531916	0.012906438012070856	0.6652890337580684	1.336194081231573	0.043645275643653066	0.8652791727898846	1.3764427405425852	0.23495609380230398	0.5556951282939474	0.001018584920294531	0.2668005518874384	0.5399684995276106	-0.23665733926105756	0.21227110536794325	0.4591518036661792	-0.1263498174663232	0.3750217783834425	0.5609696514041704	0.08662664505874303	0.6104039435088627	0.48939083069755074	0.15382017209996593	0.5124787457050983	0.2706926853917618	0.1578079547047636	0.4304950599175858	0.17443998754395507	0.22831470549039892	0.44041984571078857	0.1723266863202992	0.236714080644654	0.49694159724535725	0.14065412771752864	0.23887120013652569	0.052929186619293744	0.5573787610262315	0.03738951191660703	-0.16174149866341017	0.5115818730765915	0.030797026563886342	-0.15168834353566	0.32938145332657853	-0.07463189624678734	-0.11538063779219275	0.24321152271552923	-0.0626936912673876	-0.1423263931428434	0.18695104504509122	-0.07837709640075569	-0.18427362936283564	0.20273110773694428	-0.08046817840547514
123	2.510204081632653	0.2667219612615843	0.6071512784249374	0.5592402328473226	0.22613918470420577	0.6332034315246966	0.9446948392740269	0.24000748021697388	0.8224974320872575	1.320340412151377	0.2282233613515296	0.677174696573957	1.3534075537771604	0.2768822103639683	0.669379932244726	1.3485434329931139	0.2185296635799647	0.9365149225958109	1.4011193042548749	0.045194135513781736	0.6248998889986778	0.5522510367205664	0.07991862031970301	0.5858654476256585	0.9289515844434723	0.032951669961576474	0.8117218017843884	1.3274504547121078	0.05719597029112937	0.6108201014101491	1.3239413462507061	0.01295331406653041	0.665010553819135	1.3359233517641982	0.039572045145822514	0.8616630779122437	1.374518084104661	0.24254140553341283	0.5545497463508791	0.0011737964908442432	0.271406426611535	0.5418340960002658	-0.23611753683056866	0.21699646033414066	0.4467215781296912	-0.1296466249318947	0.374962829622211	0.545510680916664	0.08589032290508836	0.6047396490938955	0.5290432657627931	0.17171953821916183	0.5100177125503492	0.2810259595694057	0.15169901071262465	0.43435556313352996	0.1770467659395757	0.18802916927737962	0.4431772247553093	0.1391473855000233	0.19256042664127143	0.49759673113362535	0.1287363674070988	0.2162122005165162	0.05335418979119118	0.5577956131787382	0.03754214367494002	-0.16132864348505885	0.5108426906974649	0.019255695141643044	-0.14278323342208135	0.3283125933287673	-0.10699950633067479	-0.12895121685795477	0.22713753999003009	-0.11460399522938314	-0.1382625994199703	0.17977528924993577	-0.14522616401043897	-0.17233710619787332	0.19703786261216605	-0.14716695371343283
